<svg width="785" height="374" viewBox="0 0 785 374" class="keymap" xmlns="http://www.w3.org/2000/svg" xmlns:xlink="http://www.w3.org/1999/xlink">
<style>/* inherit to force styles through use tags */
svg path {
    fill: inherit;
}

/* font and background color specifications */
svg.keymap {
    font-family: SFMono-Regular,Consolas,Liberation Mono,Menlo,monospace;
    font-size: 14px;
    font-kerning: normal;
    text-rendering: optimizeLegibility;
    fill: #24292e;
}

/* default key styling */
rect.key {
    fill: #f6f8fa;
}

rect.key, rect.combo {
    stroke: #c9cccf;
    stroke-width: 1;
}

/* default key side styling, only used is draw_key_sides is set */
rect.side {
    filter: brightness(90%);
}

/* color accent for combo boxes */
rect.combo, rect.combo-separate {
    fill: #cdf;
}

/* color accent for held keys */
rect.held, rect.combo.held {
    fill: #fdd;
}

/* color accent for ghost (optional) keys */
rect.ghost, rect.combo.ghost {
    stroke-dasharray: 4, 4;
    stroke-width: 2;
}

text {
    text-anchor: middle;
    dominant-baseline: middle;
}

/* styling for layer labels */
text.label {
    font-weight: bold;
    text-anchor: start;
    stroke: white;
    stroke-width: 4;
    paint-order: stroke;
}

/* styling for optional footer */
text.footer {
    text-anchor: end;
    dominant-baseline: auto;
    stroke: white;
    stroke-width: 4;
    paint-order: stroke;
}

/* styling for combo tap, and key hold/shifted label text */
text.combo, text.hold, text.shifted {
    font-size: 11px;
}

text.hold {
    text-anchor: middle;
    dominant-baseline: auto;
}

text.shifted {
    text-anchor: middle;
    dominant-baseline: hanging;
}

text.layer-activator {
    text-decoration: underline;
}

/* styling for hold/shifted label text in combo box */
text.combo.hold, text.combo.shifted {
    font-size: 8px;
}

/* lighter symbol for transparent keys */
text.trans {
    fill: #7b7e81;
}

/* styling for combo dendrons */
path.combo {
    stroke-width: 1;
    stroke: gray;
    fill: none;
}

/* Start Tabler Icons Cleanup */
/* cannot use height/width with glyphs */
.icon-tabler > path {
    fill: inherit;
    stroke: inherit;
    stroke-width: 2;
}
/* hide tabler's default box */
.icon-tabler > path[stroke="none"][fill="none"] {
    visibility: hidden;
}
/* End Tabler Icons Cleanup */

@media (prefers-color-scheme: dark) {
svg.keymap { fill: #d1d6db; }
rect.key { fill: #3f4750; }
rect.key, rect.combo { stroke: #60666c; }
rect.combo, rect.combo-separate { fill: #1f3d7a; }
rect.held, rect.combo.held { fill: #854747; }
text.label, text.footer { stroke: black; }
text.trans { fill: #7e8184; }
path.combo { stroke: #7f7f7f; }

}</style>
<g transform="translate(30, 0)" class="layer-">
<text x="0" y="28" class="label" id="o_o"></text>
<g transform="translate(0, 56)">
<g transform="translate(25, 50)" class="key keypos-0">
<rect rx="6" ry="6" x="-23" y="-23" width="46" height="46" class="key"/>
<text x="0" y="0" class="key tap">0</text>
<a href="#o_o">
</a><a href="#o_o">
</a></g>
<g transform="translate(75, 50)" class="key keypos-1">
<rect rx="6" ry="6" x="-23" y="-23" width="46" height="46" class="key"/>
<text x="0" y="0" class="key tap">1</text>
<a href="#o_o">
</a><a href="#o_o">
</a></g>
<g transform="translate(125, 38)" class="key keypos-2">
<rect rx="6" ry="6" x="-23" y="-23" width="46" height="46" class="key"/>
<text x="0" y="0" class="key tap">2</text>
<a href="#o_o">
</a><a href="#o_o">
</a></g>
<g transform="translate(175, 25)" class="key keypos-3">
<rect rx="6" ry="6" x="-23" y="-23" width="46" height="46" class="key"/>
<text x="0" y="0" class="key tap">3</text>
<a href="#o_o">
</a><a href="#o_o">
</a></g>
<g transform="translate(225, 38)" class="key keypos-4">
<rect rx="6" ry="6" x="-23" y="-23" width="46" height="46" class="key"/>
<text x="0" y="0" class="key tap">4</text>
<a href="#o_o">
</a><a href="#o_o">
</a></g>
<g transform="translate(275, 50)" class="key keypos-5">
<rect rx="6" ry="6" x="-23" y="-23" width="46" height="46" class="key"/>
<text x="0" y="0" class="key tap">5</text>
<a href="#o_o">
</a><a href="#o_o">
</a></g>
<g transform="translate(450, 50)" class="key keypos-6">
<rect rx="6" ry="6" x="-23" y="-23" width="46" height="46" class="key"/>
<text x="0" y="0" class="key tap">6</text>
<a href="#o_o">
</a><a href="#o_o">
</a></g>
<g transform="translate(500, 40)" class="key keypos-7">
<rect rx="6" ry="6" x="-23" y="-23" width="46" height="46" class="key"/>
<text x="0" y="0" class="key tap">7</text>
<a href="#o_o">
</a><a href="#o_o">
</a></g>
<g transform="translate(550, 25)" class="key keypos-8">
<rect rx="6" ry="6" x="-23" y="-23" width="46" height="46" class="key"/>
<text x="0" y="0" class="key tap">8</text>
<a href="#o_o">
</a><a href="#o_o">
</a></g>
<g transform="translate(600, 42)" class="key keypos-9">
<rect rx="6" ry="6" x="-23" y="-23" width="46" height="46" class="key"/>
<text x="0" y="0" class="key tap">9</text>
<a href="#o_o">
</a><a href="#o_o">
</a></g>
<g transform="translate(650, 50)" class="key keypos-10">
<rect rx="6" ry="6" x="-23" y="-23" width="46" height="46" class="key"/>
<text x="0" y="0" class="key tap">10</text>
<a href="#o_o">
</a><a href="#o_o">
</a></g>
<g transform="translate(700, 50)" class="key keypos-11">
<rect rx="6" ry="6" x="-23" y="-23" width="46" height="46" class="key"/>
<text x="0" y="0" class="key tap">11</text>
<a href="#o_o">
</a><a href="#o_o">
</a></g>
<g transform="translate(25, 100)" class="key keypos-12">
<rect rx="6" ry="6" x="-23" y="-23" width="46" height="46" class="key"/>
<text x="0" y="0" class="key tap">12</text>
<a href="#o_o">
</a><a href="#o_o">
</a></g>
<g transform="translate(75, 100)" class="key keypos-13">
<rect rx="6" ry="6" x="-23" y="-23" width="46" height="46" class="key"/>
<text x="0" y="0" class="key tap">13</text>
<a href="#o_o">
</a><a href="#o_o">
</a></g>
<g transform="translate(125, 88)" class="key keypos-14">
<rect rx="6" ry="6" x="-23" y="-23" width="46" height="46" class="key"/>
<text x="0" y="0" class="key tap">14</text>
<a href="#o_o">
</a><a href="#o_o">
</a></g>
<g transform="translate(175, 75)" class="key keypos-15">
<rect rx="6" ry="6" x="-23" y="-23" width="46" height="46" class="key"/>
<text x="0" y="0" class="key tap">15</text>
<a href="#o_o">
</a><a href="#o_o">
</a></g>
<g transform="translate(225, 88)" class="key keypos-16">
<rect rx="6" ry="6" x="-23" y="-23" width="46" height="46" class="key"/>
<text x="0" y="0" class="key tap">16</text>
<a href="#o_o">
</a><a href="#o_o">
</a></g>
<g transform="translate(275, 100)" class="key keypos-17">
<rect rx="6" ry="6" x="-23" y="-23" width="46" height="46" class="key"/>
<text x="0" y="0" class="key tap">17</text>
<a href="#o_o">
</a><a href="#o_o">
</a></g>
<g transform="translate(450, 100)" class="key keypos-18">
<rect rx="6" ry="6" x="-23" y="-23" width="46" height="46" class="key"/>
<text x="0" y="0" class="key tap">18</text>
<a href="#o_o">
</a><a href="#o_o">
</a></g>
<g transform="translate(500, 90)" class="key keypos-19">
<rect rx="6" ry="6" x="-23" y="-23" width="46" height="46" class="key"/>
<text x="0" y="0" class="key tap">19</text>
<a href="#o_o">
</a><a href="#o_o">
</a></g>
<g transform="translate(550, 75)" class="key keypos-20">
<rect rx="6" ry="6" x="-23" y="-23" width="46" height="46" class="key"/>
<text x="0" y="0" class="key tap">20</text>
<a href="#o_o">
</a><a href="#o_o">
</a></g>
<g transform="translate(600, 92)" class="key keypos-21">
<rect rx="6" ry="6" x="-23" y="-23" width="46" height="46" class="key"/>
<text x="0" y="0" class="key tap">21</text>
<a href="#o_o">
</a><a href="#o_o">
</a></g>
<g transform="translate(650, 100)" class="key keypos-22">
<rect rx="6" ry="6" x="-23" y="-23" width="46" height="46" class="key"/>
<text x="0" y="0" class="key tap">22</text>
<a href="#o_o">
</a><a href="#o_o">
</a></g>
<g transform="translate(700, 100)" class="key keypos-23">
<rect rx="6" ry="6" x="-23" y="-23" width="46" height="46" class="key"/>
<text x="0" y="0" class="key tap">23</text>
<a href="#o_o">
</a><a href="#o_o">
</a></g>
<g transform="translate(25, 152)" class="key keypos-24">
<rect rx="6" ry="6" x="-23" y="-23" width="46" height="46" class="key"/>
<text x="0" y="0" class="key tap">24</text>
<a href="#o_o">
</a><a href="#o_o">
</a></g>
<g transform="translate(75, 152)" class="key keypos-25">
<rect rx="6" ry="6" x="-23" y="-23" width="46" height="46" class="key"/>
<text x="0" y="0" class="key tap">25</text>
<a href="#o_o">
</a><a href="#o_o">
</a></g>
<g transform="translate(125, 138)" class="key keypos-26">
<rect rx="6" ry="6" x="-23" y="-23" width="46" height="46" class="key"/>
<text x="0" y="0" class="key tap">26</text>
<a href="#o_o">
</a><a href="#o_o">
</a></g>
<g transform="translate(175, 125)" class="key keypos-27">
<rect rx="6" ry="6" x="-23" y="-23" width="46" height="46" class="key"/>
<text x="0" y="0" class="key tap">27</text>
<a href="#o_o">
</a><a href="#o_o">
</a></g>
<g transform="translate(225, 138)" class="key keypos-28">
<rect rx="6" ry="6" x="-23" y="-23" width="46" height="46" class="key"/>
<text x="0" y="0" class="key tap">28</text>
<a href="#o_o">
</a><a href="#o_o">
</a></g>
<g transform="translate(275, 152)" class="key keypos-29">
<rect rx="6" ry="6" x="-23" y="-23" width="46" height="46" class="key"/>
<text x="0" y="0" class="key tap">29</text>
<a href="#o_o">
</a><a href="#o_o">
</a></g>
<g transform="translate(325, 125)" class="key keypos-30">
<rect rx="6" ry="6" x="-23" y="-23" width="46" height="46" class="key"/>
<text x="0" y="0" class="key tap">30</text>
<a href="#o_o">
</a><a href="#o_o">
</a></g>
<g transform="translate(400, 125)" class="key keypos-31">
<rect rx="6" ry="6" x="-23" y="-23" width="46" height="46" class="key"/>
<text x="0" y="0" class="key tap">31</text>
<a href="#o_o">
</a><a href="#o_o">
</a></g>
<g transform="translate(450, 152)" class="key keypos-32">
<rect rx="6" ry="6" x="-23" y="-23" width="46" height="46" class="key"/>
<text x="0" y="0" class="key tap">32</text>
<a href="#o_o">
</a><a href="#o_o">
</a></g>
<g transform="translate(500, 140)" class="key keypos-33">
<rect rx="6" ry="6" x="-23" y="-23" width="46" height="46" class="key"/>
<text x="0" y="0" class="key tap">33</text>
<a href="#o_o">
</a><a href="#o_o">
</a></g>
<g transform="translate(550, 125)" class="key keypos-34">
<rect rx="6" ry="6" x="-23" y="-23" width="46" height="46" class="key"/>
<text x="0" y="0" class="key tap">34</text>
<a href="#o_o">
</a><a href="#o_o">
</a></g>
<g transform="translate(600, 142)" class="key keypos-35">
<rect rx="6" ry="6" x="-23" y="-23" width="46" height="46" class="key"/>
<text x="0" y="0" class="key tap">35</text>
<a href="#o_o">
</a><a href="#o_o">
</a></g>
<g transform="translate(650, 152)" class="key keypos-36">
<rect rx="6" ry="6" x="-23" y="-23" width="46" height="46" class="key"/>
<text x="0" y="0" class="key tap">36</text>
<a href="#o_o">
</a><a href="#o_o">
</a></g>
<g transform="translate(700, 152)" class="key keypos-37">
<rect rx="6" ry="6" x="-23" y="-23" width="46" height="46" class="key"/>
<text x="0" y="0" class="key tap">37</text>
<a href="#o_o">
</a><a href="#o_o">
</a></g>
<g transform="translate(25, 202)" class="key keypos-38">
<rect rx="6" ry="6" x="-23" y="-23" width="46" height="46" class="key"/>
<text x="0" y="0" class="key tap">38</text>
<a href="#o_o">
</a><a href="#o_o">
</a></g>
<g transform="translate(75, 202)" class="key keypos-39">
<rect rx="6" ry="6" x="-23" y="-23" width="46" height="46" class="key"/>
<text x="0" y="0" class="key tap">39</text>
<a href="#o_o">
</a><a href="#o_o">
</a></g>
<g transform="translate(125, 190)" class="key keypos-40">
<rect rx="6" ry="6" x="-23" y="-23" width="46" height="46" class="key"/>
<text x="0" y="0" class="key tap">40</text>
<a href="#o_o">
</a><a href="#o_o">
</a></g>
<g transform="translate(200, 206)" class="key keypos-41">
<rect rx="6" ry="6" x="-23" y="-23" width="46" height="46" class="key"/>
<text x="0" y="0" class="key tap">41</text>
<a href="#o_o">
</a><a href="#o_o">
</a></g>
<g transform="translate(256, 211) rotate(11.93)" class="key keypos-42">
<rect rx="6" ry="6" x="-23" y="-23" width="46" height="46" class="key"/>
<text x="0" y="0" class="key tap">42</text>
<a href="#o_o">
</a><a href="#o_o">
</a></g>
<g transform="translate(308, 229) rotate(23.0)" class="key keypos-43">
<rect rx="6" ry="6" x="-23" y="-23" width="46" height="46" class="key"/>
<text x="0" y="0" class="key tap">43</text>
<a href="#o_o">
</a><a href="#o_o">
</a></g>
<g transform="translate(417, 228) rotate(-23.0)" class="key keypos-44">
<rect rx="6" ry="6" x="-23" y="-23" width="46" height="46" class="key"/>
<text x="0" y="0" class="key tap">44</text>
<a href="#o_o">
</a><a href="#o_o">
</a></g>
<g transform="translate(470, 210) rotate(-11.93)" class="key keypos-45">
<rect rx="6" ry="6" x="-23" y="-23" width="46" height="46" class="key"/>
<text x="0" y="0" class="key tap">45</text>
<a href="#o_o">
</a><a href="#o_o">
</a></g>
<g transform="translate(525, 206)" class="key keypos-46">
<rect rx="6" ry="6" x="-23" y="-23" width="46" height="46" class="key"/>
<text x="0" y="0" class="key tap">46</text>
<a href="#o_o">
</a><a href="#o_o">
</a></g>
<g transform="translate(600, 194)" class="key keypos-47">
<rect rx="6" ry="6" x="-23" y="-23" width="46" height="46" class="key"/>
<text x="0" y="0" class="key tap">47</text>
<a href="#o_o">
</a><a href="#o_o">
</a></g>
<g transform="translate(650, 202)" class="key keypos-48">
<rect rx="6" ry="6" x="-23" y="-23" width="46" height="46" class="key"/>
<text x="0" y="0" class="key tap">48</text>
<a href="#o_o">
</a><a href="#o_o">
</a></g>
<g transform="translate(700, 202)" class="key keypos-49">
<rect rx="6" ry="6" x="-23" y="-23" width="46" height="46" class="key"/>
<text x="0" y="0" class="key tap">49</text>
<a href="#o_o">
</a><a href="#o_o">
</a></g>
</g>
</g>
</svg>
