<svg width="745" height="346" viewBox="0 0 745 346" class="keymap" xmlns="http://www.w3.org/2000/svg" xmlns:xlink="http://www.w3.org/1999/xlink">
<style>/* inherit to force styles through use tags */
svg path {
    fill: inherit;
}

/* font and background color specifications */
svg.keymap {
    font-family: SFMono-Regular,Consolas,Liberation Mono,Menlo,monospace;
    font-size: 14px;
    font-kerning: normal;
    text-rendering: optimizeLegibility;
    fill: #24292e;
}

/* default key styling */
rect.key {
    fill: #f6f8fa;
}

rect.key, rect.combo {
    stroke: #c9cccf;
    stroke-width: 1;
}

/* default key side styling, only used is draw_key_sides is set */
rect.side {
    filter: brightness(90%);
}

/* color accent for combo boxes */
rect.combo, rect.combo-separate {
    fill: #cdf;
}

/* color accent for held keys */
rect.held, rect.combo.held {
    fill: #fdd;
}

/* color accent for ghost (optional) keys */
rect.ghost, rect.combo.ghost {
    stroke-dasharray: 4, 4;
    stroke-width: 2;
}

text {
    text-anchor: middle;
    dominant-baseline: middle;
}

/* styling for layer labels */
text.label {
    font-weight: bold;
    text-anchor: start;
    stroke: white;
    stroke-width: 4;
    paint-order: stroke;
}

/* styling for optional footer */
text.footer {
    text-anchor: end;
    dominant-baseline: auto;
    stroke: white;
    stroke-width: 4;
    paint-order: stroke;
}

/* styling for combo tap, and key hold/shifted label text */
text.combo, text.hold, text.shifted {
    font-size: 11px;
}

text.hold {
    text-anchor: middle;
    dominant-baseline: auto;
}

text.shifted {
    text-anchor: middle;
    dominant-baseline: hanging;
}

text.layer-activator {
    text-decoration: underline;
}

/* styling for hold/shifted label text in combo box */
text.combo.hold, text.combo.shifted {
    font-size: 8px;
}

/* lighter symbol for transparent keys */
text.trans {
    fill: #7b7e81;
}

/* styling for combo dendrons */
path.combo {
    stroke-width: 1;
    stroke: gray;
    fill: none;
}

/* Start Tabler Icons Cleanup */
/* cannot use height/width with glyphs */
.icon-tabler > path {
    fill: inherit;
    stroke: inherit;
    stroke-width: 2;
}
/* hide tabler's default box */
.icon-tabler > path[stroke="none"][fill="none"] {
    visibility: hidden;
}
/* End Tabler Icons Cleanup */

@media (prefers-color-scheme: dark) {
svg.keymap { fill: #d1d6db; }
rect.key { fill: #3f4750; }
rect.key, rect.combo { stroke: #60666c; }
rect.combo, rect.combo-separate { fill: #1f3d7a; }
rect.held, rect.combo.held { fill: #854747; }
text.label, text.footer { stroke: black; }
text.trans { fill: #7e8184; }
path.combo { stroke: #7f7f7f; }

}</style>
<g transform="translate(30, 0)" class="layer-">
<text x="0" y="28" class="label" id="o_o"></text>
<g transform="translate(0, 56)">
<g transform="translate(25, 102) rotate(-22.0)" class="key keypos-0">
<rect rx="6" ry="6" x="-23" y="-23" width="46" height="46" class="key"/>
<text x="0" y="0" class="key tap">0</text>
<a href="#o_o">
</a><a href="#o_o">
</a></g>
<g transform="translate(82, 54) rotate(-12.0)" class="key keypos-1">
<rect rx="6" ry="6" x="-23" y="-23" width="46" height="46" class="key"/>
<text x="0" y="0" class="key tap">1</text>
<a href="#o_o">
</a><a href="#o_o">
</a></g>
<g transform="translate(144, 25) rotate(-4.0)" class="key keypos-2">
<rect rx="6" ry="6" x="-23" y="-23" width="46" height="46" class="key"/>
<text x="0" y="0" class="key tap">2</text>
<a href="#o_o">
</a><a href="#o_o">
</a></g>
<g transform="translate(203, 45)" class="key keypos-3">
<rect rx="6" ry="6" x="-23" y="-23" width="46" height="46" class="key"/>
<text x="0" y="0" class="key tap">3</text>
<a href="#o_o">
</a><a href="#o_o">
</a></g>
<g transform="translate(252, 57)" class="key keypos-4">
<rect rx="6" ry="6" x="-23" y="-23" width="46" height="46" class="key"/>
<text x="0" y="0" class="key tap">4</text>
<a href="#o_o">
</a><a href="#o_o">
</a></g>
<g transform="translate(425, 57)" class="key keypos-5">
<rect rx="6" ry="6" x="-23" y="-23" width="46" height="46" class="key"/>
<text x="0" y="0" class="key tap">5</text>
<a href="#o_o">
</a><a href="#o_o">
</a></g>
<g transform="translate(475, 45)" class="key keypos-6">
<rect rx="6" ry="6" x="-23" y="-23" width="46" height="46" class="key"/>
<text x="0" y="0" class="key tap">6</text>
<a href="#o_o">
</a><a href="#o_o">
</a></g>
<g transform="translate(533, 25) rotate(4.0)" class="key keypos-7">
<rect rx="6" ry="6" x="-23" y="-23" width="46" height="46" class="key"/>
<text x="0" y="0" class="key tap">7</text>
<a href="#o_o">
</a><a href="#o_o">
</a></g>
<g transform="translate(595, 54) rotate(12.0)" class="key keypos-8">
<rect rx="6" ry="6" x="-23" y="-23" width="46" height="46" class="key"/>
<text x="0" y="0" class="key tap">8</text>
<a href="#o_o">
</a><a href="#o_o">
</a></g>
<g transform="translate(652, 102) rotate(22.0)" class="key keypos-9">
<rect rx="6" ry="6" x="-23" y="-23" width="46" height="46" class="key"/>
<text x="0" y="0" class="key tap">9</text>
<a href="#o_o">
</a><a href="#o_o">
</a></g>
<g transform="translate(43, 149) rotate(-22.0)" class="key keypos-10">
<rect rx="6" ry="6" x="-23" y="-23" width="46" height="46" class="key"/>
<text x="0" y="0" class="key tap">10</text>
<a href="#o_o">
</a><a href="#o_o">
</a></g>
<g transform="translate(92, 103) rotate(-12.0)" class="key keypos-11">
<rect rx="6" ry="6" x="-23" y="-23" width="46" height="46" class="key"/>
<text x="0" y="0" class="key tap">11</text>
<a href="#o_o">
</a><a href="#o_o">
</a></g>
<g transform="translate(147, 75) rotate(-4.0)" class="key keypos-12">
<rect rx="6" ry="6" x="-23" y="-23" width="46" height="46" class="key"/>
<text x="0" y="0" class="key tap">12</text>
<a href="#o_o">
</a><a href="#o_o">
</a></g>
<g transform="translate(203, 95)" class="key keypos-13">
<rect rx="6" ry="6" x="-23" y="-23" width="46" height="46" class="key"/>
<text x="0" y="0" class="key tap">13</text>
<a href="#o_o">
</a><a href="#o_o">
</a></g>
<g transform="translate(252, 108)" class="key keypos-14">
<rect rx="6" ry="6" x="-23" y="-23" width="46" height="46" class="key"/>
<text x="0" y="0" class="key tap">14</text>
<a href="#o_o">
</a><a href="#o_o">
</a></g>
<g transform="translate(425, 108)" class="key keypos-15">
<rect rx="6" ry="6" x="-23" y="-23" width="46" height="46" class="key"/>
<text x="0" y="0" class="key tap">15</text>
<a href="#o_o">
</a><a href="#o_o">
</a></g>
<g transform="translate(475, 95)" class="key keypos-16">
<rect rx="6" ry="6" x="-23" y="-23" width="46" height="46" class="key"/>
<text x="0" y="0" class="key tap">16</text>
<a href="#o_o">
</a><a href="#o_o">
</a></g>
<g transform="translate(530, 75) rotate(4.0)" class="key keypos-17">
<rect rx="6" ry="6" x="-23" y="-23" width="46" height="46" class="key"/>
<text x="0" y="0" class="key tap">17</text>
<a href="#o_o">
</a><a href="#o_o">
</a></g>
<g transform="translate(586, 103) rotate(12.0)" class="key keypos-18">
<rect rx="6" ry="6" x="-23" y="-23" width="46" height="46" class="key"/>
<text x="0" y="0" class="key tap">18</text>
<a href="#o_o">
</a><a href="#o_o">
</a></g>
<g transform="translate(635, 149) rotate(22.0)" class="key keypos-19">
<rect rx="6" ry="6" x="-23" y="-23" width="46" height="46" class="key"/>
<text x="0" y="0" class="key tap">19</text>
<a href="#o_o">
</a><a href="#o_o">
</a></g>
<g transform="translate(60, 195) rotate(-22.0)" class="key keypos-20">
<rect rx="6" ry="6" x="-23" y="-23" width="46" height="46" class="key"/>
<text x="0" y="0" class="key tap">20</text>
<a href="#o_o">
</a><a href="#o_o">
</a></g>
<g transform="translate(102, 152) rotate(-12.0)" class="key keypos-21">
<rect rx="6" ry="6" x="-23" y="-23" width="46" height="46" class="key"/>
<text x="0" y="0" class="key tap">21</text>
<a href="#o_o">
</a><a href="#o_o">
</a></g>
<g transform="translate(151, 125) rotate(-4.0)" class="key keypos-22">
<rect rx="6" ry="6" x="-23" y="-23" width="46" height="46" class="key"/>
<text x="0" y="0" class="key tap">22</text>
<a href="#o_o">
</a><a href="#o_o">
</a></g>
<g transform="translate(203, 145)" class="key keypos-23">
<rect rx="6" ry="6" x="-23" y="-23" width="46" height="46" class="key"/>
<text x="0" y="0" class="key tap">23</text>
<a href="#o_o">
</a><a href="#o_o">
</a></g>
<g transform="translate(252, 158)" class="key keypos-24">
<rect rx="6" ry="6" x="-23" y="-23" width="46" height="46" class="key"/>
<text x="0" y="0" class="key tap">24</text>
<a href="#o_o">
</a><a href="#o_o">
</a></g>
<g transform="translate(425, 158)" class="key keypos-25">
<rect rx="6" ry="6" x="-23" y="-23" width="46" height="46" class="key"/>
<text x="0" y="0" class="key tap">25</text>
<a href="#o_o">
</a><a href="#o_o">
</a></g>
<g transform="translate(475, 145)" class="key keypos-26">
<rect rx="6" ry="6" x="-23" y="-23" width="46" height="46" class="key"/>
<text x="0" y="0" class="key tap">26</text>
<a href="#o_o">
</a><a href="#o_o">
</a></g>
<g transform="translate(527, 125) rotate(4.0)" class="key keypos-27">
<rect rx="6" ry="6" x="-23" y="-23" width="46" height="46" class="key"/>
<text x="0" y="0" class="key tap">27</text>
<a href="#o_o">
</a><a href="#o_o">
</a></g>
<g transform="translate(576, 152) rotate(12.0)" class="key keypos-28">
<rect rx="6" ry="6" x="-23" y="-23" width="46" height="46" class="key"/>
<text x="0" y="0" class="key tap">28</text>
<a href="#o_o">
</a><a href="#o_o">
</a></g>
<g transform="translate(617, 195) rotate(22.0)" class="key keypos-29">
<rect rx="6" ry="6" x="-23" y="-23" width="46" height="46" class="key"/>
<text x="0" y="0" class="key tap">29</text>
<a href="#o_o">
</a><a href="#o_o">
</a></g>
<g transform="translate(196, 208)" class="key keypos-30">
<rect rx="6" ry="6" x="-23" y="-23" width="46" height="46" class="key"/>
<text x="0" y="0" class="key tap">30</text>
<a href="#o_o">
</a><a href="#o_o">
</a></g>
<g transform="translate(252, 208) rotate(2.0)" class="key keypos-31">
<rect rx="6" ry="6" x="-23" y="-23" width="46" height="46" class="key"/>
<text x="0" y="0" class="key tap">31</text>
<a href="#o_o">
</a><a href="#o_o">
</a></g>
<g transform="translate(426, 208) rotate(-2.0)" class="key keypos-32">
<rect rx="6" ry="6" x="-23" y="-23" width="46" height="46" class="key"/>
<text x="0" y="0" class="key tap">32</text>
<a href="#o_o">
</a><a href="#o_o">
</a></g>
<g transform="translate(481, 208)" class="key keypos-33">
<rect rx="6" ry="6" x="-23" y="-23" width="46" height="46" class="key"/>
<text x="0" y="0" class="key tap">33</text>
<a href="#o_o">
</a><a href="#o_o">
</a></g>
</g>
</g>
</svg>
